<mxfile host="Electron" modified="2025-07-25T10:31:29.510Z" agent="Mozilla/5.0 (Windows NT 10.0; Win64; x64) AppleWebKit/537.36 (KHTML, like Gecko) draw.io/22.1.2 Chrome/114.0.5735.289 Electron/25.9.4 Safari/537.36" etag="yVt9RUB_FQtGkkwx8uVP" version="22.1.2" type="device">
  <diagram name="Page-1" id="TDt1fXuN8vmi8L3AN4Qs">
    <mxGraphModel dx="979" dy="650" grid="0" gridSize="10" guides="1" tooltips="1" connect="1" arrows="1" fold="1" page="1" pageScale="1" pageWidth="850" pageHeight="1100" math="0" shadow="0">
      <root>
        <mxCell id="0" />
        <mxCell id="1" parent="0" />
        <mxCell id="pwgaV-k65OldhR-KMV-0-25" value="" style="rounded=0;whiteSpace=wrap;html=1;strokeWidth=1;" vertex="1" parent="1">
          <mxGeometry x="260" y="160" width="320" height="290" as="geometry" />
        </mxCell>
        <mxCell id="pwgaV-k65OldhR-KMV-0-17" value="Clients" style="rounded=0;whiteSpace=wrap;html=1;labelPosition=center;verticalLabelPosition=top;align=center;verticalAlign=bottom;fontStyle=1" vertex="1" parent="1">
          <mxGeometry x="260" y="60" width="320" height="60" as="geometry" />
        </mxCell>
        <mxCell id="pwgaV-k65OldhR-KMV-0-6" value="Application Layer" style="rounded=0;whiteSpace=wrap;html=1;fontStyle=1" vertex="1" parent="1">
          <mxGeometry x="280" y="240" width="280" height="40" as="geometry" />
        </mxCell>
        <mxCell id="pwgaV-k65OldhR-KMV-0-28" style="edgeStyle=orthogonalEdgeStyle;rounded=0;orthogonalLoop=1;jettySize=auto;html=1;exitX=0.5;exitY=1;exitDx=0;exitDy=0;entryX=0.5;entryY=0;entryDx=0;entryDy=0;" edge="1" parent="1" source="pwgaV-k65OldhR-KMV-0-7" target="pwgaV-k65OldhR-KMV-0-6">
          <mxGeometry relative="1" as="geometry" />
        </mxCell>
        <mxCell id="pwgaV-k65OldhR-KMV-0-7" value="Presentation Layer" style="rounded=0;whiteSpace=wrap;html=1;fontStyle=1" vertex="1" parent="1">
          <mxGeometry x="280" y="180" width="280" height="40" as="geometry" />
        </mxCell>
        <mxCell id="pwgaV-k65OldhR-KMV-0-8" value="Infrastructure Layer" style="rounded=0;whiteSpace=wrap;html=1;labelPosition=center;verticalLabelPosition=top;align=center;verticalAlign=bottom;fontStyle=1" vertex="1" parent="1">
          <mxGeometry x="280" y="370" width="280" height="60" as="geometry" />
        </mxCell>
        <mxCell id="pwgaV-k65OldhR-KMV-0-9" value="Persistence" style="rounded=0;whiteSpace=wrap;html=1;fontStyle=1" vertex="1" parent="1">
          <mxGeometry x="290" y="380" width="260" height="40" as="geometry" />
        </mxCell>
        <mxCell id="pwgaV-k65OldhR-KMV-0-15" value="Domain Layer" style="rounded=0;whiteSpace=wrap;html=1;fontStyle=1" vertex="1" parent="1">
          <mxGeometry x="280" y="300" width="280" height="40" as="geometry" />
        </mxCell>
        <mxCell id="pwgaV-k65OldhR-KMV-0-21" style="edgeStyle=orthogonalEdgeStyle;rounded=0;orthogonalLoop=1;jettySize=auto;html=1;curved=1;" edge="1" parent="1" source="pwgaV-k65OldhR-KMV-0-16" target="pwgaV-k65OldhR-KMV-0-7">
          <mxGeometry relative="1" as="geometry" />
        </mxCell>
        <mxCell id="pwgaV-k65OldhR-KMV-0-16" value="Http" style="rounded=0;whiteSpace=wrap;html=1;fillColor=#f5f5f5;fontColor=#333333;strokeColor=#666666;fontStyle=1" vertex="1" parent="1">
          <mxGeometry x="280" y="75" width="70" height="30" as="geometry" />
        </mxCell>
        <mxCell id="pwgaV-k65OldhR-KMV-0-23" style="edgeStyle=orthogonalEdgeStyle;rounded=0;orthogonalLoop=1;jettySize=auto;html=1;exitX=0.5;exitY=1;exitDx=0;exitDy=0;curved=1;" edge="1" parent="1" source="pwgaV-k65OldhR-KMV-0-18">
          <mxGeometry relative="1" as="geometry">
            <mxPoint x="420" y="180" as="targetPoint" />
          </mxGeometry>
        </mxCell>
        <mxCell id="pwgaV-k65OldhR-KMV-0-18" value="GUI" style="rounded=0;whiteSpace=wrap;html=1;fillColor=#f5f5f5;fontColor=#333333;strokeColor=#666666;fontStyle=1" vertex="1" parent="1">
          <mxGeometry x="385" y="75" width="70" height="30" as="geometry" />
        </mxCell>
        <mxCell id="pwgaV-k65OldhR-KMV-0-24" style="edgeStyle=orthogonalEdgeStyle;rounded=0;orthogonalLoop=1;jettySize=auto;html=1;exitX=0.5;exitY=1;exitDx=0;exitDy=0;entryX=0.5;entryY=0;entryDx=0;entryDy=0;curved=1;" edge="1" parent="1" source="pwgaV-k65OldhR-KMV-0-19" target="pwgaV-k65OldhR-KMV-0-7">
          <mxGeometry relative="1" as="geometry" />
        </mxCell>
        <mxCell id="pwgaV-k65OldhR-KMV-0-19" value="CLI" style="rounded=0;whiteSpace=wrap;html=1;fillColor=#f5f5f5;fontColor=#333333;strokeColor=#666666;fontStyle=1" vertex="1" parent="1">
          <mxGeometry x="490" y="75" width="70" height="30" as="geometry" />
        </mxCell>
        <mxCell id="pwgaV-k65OldhR-KMV-0-26" value="DB" style="strokeWidth=1;html=1;shape=mxgraph.flowchart.database;whiteSpace=wrap;fontStyle=1" vertex="1" parent="1">
          <mxGeometry x="390" y="480" width="60" height="60" as="geometry" />
        </mxCell>
        <mxCell id="pwgaV-k65OldhR-KMV-0-27" style="edgeStyle=orthogonalEdgeStyle;rounded=0;orthogonalLoop=1;jettySize=auto;html=1;exitX=0.5;exitY=1;exitDx=0;exitDy=0;entryX=0.5;entryY=0;entryDx=0;entryDy=0;entryPerimeter=0;" edge="1" parent="1" source="pwgaV-k65OldhR-KMV-0-9" target="pwgaV-k65OldhR-KMV-0-26">
          <mxGeometry relative="1" as="geometry">
            <mxPoint x="430" y="430" as="sourcePoint" />
            <mxPoint x="430" y="510" as="targetPoint" />
          </mxGeometry>
        </mxCell>
        <mxCell id="pwgaV-k65OldhR-KMV-0-31" style="edgeStyle=orthogonalEdgeStyle;rounded=0;orthogonalLoop=1;jettySize=auto;html=1;exitX=0.25;exitY=1;exitDx=0;exitDy=0;" edge="1" parent="1" source="pwgaV-k65OldhR-KMV-0-6">
          <mxGeometry relative="1" as="geometry">
            <mxPoint x="500" y="290" as="sourcePoint" />
            <mxPoint x="350" y="300" as="targetPoint" />
          </mxGeometry>
        </mxCell>
        <mxCell id="pwgaV-k65OldhR-KMV-0-29" style="edgeStyle=orthogonalEdgeStyle;rounded=0;orthogonalLoop=1;jettySize=auto;html=1;exitX=0.75;exitY=1;exitDx=0;exitDy=0;entryX=0.75;entryY=0;entryDx=0;entryDy=0;" edge="1" parent="1" source="pwgaV-k65OldhR-KMV-0-6" target="pwgaV-k65OldhR-KMV-0-8">
          <mxGeometry relative="1" as="geometry" />
        </mxCell>
        <mxCell id="pwgaV-k65OldhR-KMV-0-35" style="rounded=0;orthogonalLoop=1;jettySize=auto;html=1;fillColor=#fff2cc;strokeColor=#d6b656;strokeWidth=2;exitX=0;exitY=0.5;exitDx=0;exitDy=0;exitPerimeter=0;entryX=1;entryY=0.5;entryDx=0;entryDy=0;" edge="1" parent="1" source="pwgaV-k65OldhR-KMV-0-32" target="pwgaV-k65OldhR-KMV-0-15">
          <mxGeometry relative="1" as="geometry" />
        </mxCell>
        <mxCell id="pwgaV-k65OldhR-KMV-0-32" value="Protects Invariants" style="shape=note;strokeWidth=2;fontSize=12;size=20;whiteSpace=wrap;html=1;fillColor=#fff2cc;strokeColor=#d6b656;fontColor=#666600;align=left;spacing=5;" vertex="1" parent="1">
          <mxGeometry x="630" y="280" width="120" height="30" as="geometry" />
        </mxCell>
        <mxCell id="pwgaV-k65OldhR-KMV-0-34" value="Validates Input" style="shape=note;strokeWidth=2;fontSize=12;size=20;whiteSpace=wrap;html=1;fillColor=#fff2cc;strokeColor=#d6b656;fontColor=#666600;align=left;spacing=5;" vertex="1" parent="1">
          <mxGeometry x="630" y="160" width="120" height="30" as="geometry" />
        </mxCell>
        <mxCell id="pwgaV-k65OldhR-KMV-0-36" style="rounded=0;orthogonalLoop=1;jettySize=auto;html=1;fillColor=#fff2cc;strokeColor=#d6b656;strokeWidth=2;exitX=0;exitY=0.5;exitDx=0;exitDy=0;exitPerimeter=0;entryX=1;entryY=0.5;entryDx=0;entryDy=0;" edge="1" parent="1" source="pwgaV-k65OldhR-KMV-0-34" target="pwgaV-k65OldhR-KMV-0-7">
          <mxGeometry relative="1" as="geometry">
            <mxPoint x="640" y="305" as="sourcePoint" />
            <mxPoint x="570" y="313" as="targetPoint" />
          </mxGeometry>
        </mxCell>
        <mxCell id="pwgaV-k65OldhR-KMV-0-37" value="Protects Data&amp;nbsp;&lt;br&gt;Integrity" style="shape=note;strokeWidth=2;fontSize=12;size=20;whiteSpace=wrap;html=1;fillColor=#fff2cc;strokeColor=#d6b656;fontColor=#666600;align=left;spacing=5;" vertex="1" parent="1">
          <mxGeometry x="630" y="450" width="120" height="40" as="geometry" />
        </mxCell>
        <mxCell id="pwgaV-k65OldhR-KMV-0-38" style="rounded=0;orthogonalLoop=1;jettySize=auto;html=1;fillColor=#fff2cc;strokeColor=#d6b656;strokeWidth=2;exitX=0;exitY=0.5;exitDx=0;exitDy=0;exitPerimeter=0;entryX=1;entryY=0.5;entryDx=0;entryDy=0;" edge="1" parent="1" source="pwgaV-k65OldhR-KMV-0-37" target="pwgaV-k65OldhR-KMV-0-9">
          <mxGeometry relative="1" as="geometry">
            <mxPoint x="640" y="305" as="sourcePoint" />
            <mxPoint x="570" y="330" as="targetPoint" />
          </mxGeometry>
        </mxCell>
        <mxCell id="pwgaV-k65OldhR-KMV-0-39" style="rounded=0;orthogonalLoop=1;jettySize=auto;html=1;fillColor=#fff2cc;strokeColor=#d6b656;strokeWidth=2;exitX=0;exitY=0.5;exitDx=0;exitDy=0;exitPerimeter=0;entryX=1;entryY=0.5;entryDx=0;entryDy=0;entryPerimeter=0;" edge="1" parent="1" source="pwgaV-k65OldhR-KMV-0-37" target="pwgaV-k65OldhR-KMV-0-26">
          <mxGeometry relative="1" as="geometry">
            <mxPoint x="640" y="400" as="sourcePoint" />
            <mxPoint x="560" y="410" as="targetPoint" />
          </mxGeometry>
        </mxCell>
      </root>
    </mxGraphModel>
  </diagram>
</mxfile>
